PathFileType	4	(X/Y/Z)	C:\Users\Basilio\Documents\Thesis Gigler\squatting_fais\c3dfiles\041\SLS_pre_back4\markers_experimental.trc
DataRate	CameraRate	NumFrames	NumMarkers	Units	OrigDataRate	OrigDataStartFrame	OrigNumFrames
200.000000	200.000000	4	64	mm	200.000000	477	1272
Frame#	Time	FHD			LBHD			RBHD			C7			T10			CLAV			LSHO			LUUPA			LMUPA			LDUPA			LLEP			LMEP			LRAD			LUL			LRFIN			RSHO			RUPA1			RMUPA			RDUPA			RLEP			RMEP			RRAD			RUL			RUFIN			LASI			RASI			USACR			LSACR			RSACR			LTHI1			LTHI2			LTHI3			LTHI4			LLFC			LMFC			LTIB1			LTIB2			LTIB3			LTIB4			LLMAL			LMMAL			LHEE			LMT1			LMT2			LMT5			RTHI			RTHI2			RTHI3			RTHI4			RLFC			RMFC			RTIB1			RTIB2			RTIB3			RTIB4			RLMAL			RMMAL			RHEE			RMT1			RMT2			RMT5			*61			*62			*63			
		X1	Y1	Z1	X2	Y2	Z2	X3	Y3	Z3	X4	Y4	Z4	X5	Y5	Z5	X6	Y6	Z6	X7	Y7	Z7	X8	Y8	Z8	X9	Y9	Z9	X10	Y10	Z10	X11	Y11	Z11	X12	Y12	Z12	X13	Y13	Z13	X14	Y14	Z14	X15	Y15	Z15	X16	Y16	Z16	X17	Y17	Z17	X18	Y18	Z18	X19	Y19	Z19	X20	Y20	Z20	X21	Y21	Z21	X22	Y22	Z22	X23	Y23	Z23	X24	Y24	Z24	X25	Y25	Z25	X26	Y26	Z26	X27	Y27	Z27	X28	Y28	Z28	X29	Y29	Z29	X30	Y30	Z30	X31	Y31	Z31	X32	Y32	Z32	X33	Y33	Z33	X34	Y34	Z34	X35	Y35	Z35	X36	Y36	Z36	X37	Y37	Z37	X38	Y38	Z38	X39	Y39	Z39	X40	Y40	Z40	X41	Y41	Z41	X42	Y42	Z42	X43	Y43	Z43	X44	Y44	Z44	X45	Y45	Z45	X46	Y46	Z46	X47	Y47	Z47	X48	Y48	Z48	X49	Y49	Z49	X50	Y50	Z50	X51	Y51	Z51	X52	Y52	Z52	X53	Y53	Z53	X54	Y54	Z54	X55	Y55	Z55	X56	Y56	Z56	X57	Y57	Z57	X58	Y58	Z58	X59	Y59	Z59	X60	Y60	Z60	X61	Y61	Z61	X62	Y62	Z62	X63	Y63	Z63	X64	Y64	Z64	

478	2.385	-96.85243988037112	1599.753540039063	-1122.054565429688	-273.0630493164063	1520.955078125	-1188.230102539063	-246.7616729736329	1529.164306640625	-1037.1748046875	-310.2855834960938	1408.284301757813	-1116.203369140625	-441.3565368652345	1134.448486328125	-1078.357788085938	-171.1517944335938	1317.521606445313	-1123.126342773438	-236.2305450439454	1411.858276367188	-1247.512573242188	-130.7843780517578	1411.428344726563	-1370.295776367188	-88.31990814208986	1423.665283203125	-1349.7861328125	-71.50389862060548	1415.318237304688	-1408.03515625	-27.28327369689942	1413.848999023438	-1425.231079101563	12.98208141326905	1343.491577148438	-1395.023681640625	249.4102020263672	1451.14892578125	-1446.132934570313	224.2944030761719	1461.084838867188	-1513.42626953125	304.7051086425782	1502.719360351563	-1456.326782226563	-218.2812194824219	1426.93603515625	-1011.164001464844	-67.48729705810548	1436.226806640625	-909.750183105469	-54.39231872558595	1459.162963867188	-953.1407470703127	-2.669241666793824	1461.21923828125	-923.7647705078127	41.50129699707032	1467.954345703125	-929.3193969726565	65.33650970458986	1387.5107421875	-949.5117187500002	297.2344970703126	1484.641845703125	-1026.362915039063	301.2073669433594	1508.321655273438	-955.089538574219	373.9091796875001	1511.083740234375	-1041.865844726563	-334.6716613769532	912.3643188476565	-1177.036743164063	-356.0189514160157	900.1285400390627	-953.6978759765627	-495.0079956054689	1030.020629882813	-1073.079711914063	-516.4700317382814	1010.977722167969	-1103.19384765625	-523.8248291015626	1008.456359863281	-1048.510620117188	-380.6029968261719	735.4713134765626	-1242.543334960938	-308.8904113769532	691.7414550781251	-1229.347900390625	-271.8793640136719	718.2379150390626	-1216.335205078125	-304.3254699707032	630.8619995117189	-1215.64306640625	-206.0609130859376	492.9322204589845	-1175.942626953125	-211.7885437011719	489.5252685546876	-1060.73876953125	-230.0332031250001	312.3843078613282	-1099.994995117188	-283.3732604980469	277.8133850097657	-1164.033569335938	-251.5200958251954	267.2837219238282	-1134.203125	-283.3427429199219	199.7025299072266	-1094.456909179688	-367.3577575683594	124.6234893798828	-1135.843383789063	-338.8887634277344	135.7243041992188	-1049.661865234375	-441.2878417968751	110.4777984619141	-1096.909790039063	-239.3542175292969	62.4204788208008	-1049.98291015625	-227.4859619140626	57.05802536010744	-1094.280883789063	-270.4465026855469	41.44571685791016	-1152.3125	-460.6407165527345	653.0686645507814	-889.9725341796877	-415.6360473632814	603.6586914062501	-886.3131103515627	-383.1692199707032	608.2467651367189	-891.8337402343752	-433.8528442382814	521.6195678710939	-902.7401123046877	-433.3593750000001	433.8902893066407	-909.363464355469	-431.8267517089845	401.1614990234376	-1018.52880859375	-557.1760864257814	333.7041015625001	-909.5810546875002	-660.0491333007814	381.0237121582032	-907.1131591796877	-644.1540527343751	337.6717529296876	-900.0975341796877	-678.1445312500001	294.1291198730469	-924.5109863281252	-811.3161621093752	301.0047302246094	-914.656433105469	-775.5446777343752	274.7178344726563	-988.0783691406252	-857.8071289062502	339.6905822753907	-973.945251464844	-796.2468261718752	132.8106079101563	-969.8171997070315	-800.043395996094	129.2810516357422	-916.650085449219	-843.3238525390627	164.0794219970703	-878.4421997070315	-4216.967285156251	853.1162719726565	-3944.705810546876	nan	nan	nan	nan	nan	nan	
479	2.39	-96.77498626708987	1598.93017578125	-1121.98876953125	-272.7448730468751	1519.98779296875	-1188.15234375	-246.5036621093751	1528.037841796875	-1037.085083007813	-309.9354553222657	1407.276489257813	-1116.169921875	-441.2489318847657	1133.690551757813	-1078.16552734375	-170.8668975830078	1316.420288085938	-1123.072998046875	-235.9472351074219	1410.930908203125	-1247.294189453125	-130.5059204101563	1410.799926757813	-1370.00732421875	-88.0464553833008	1422.958862304688	-1349.550415039063	-71.83517456054689	1415.140747070313	-1408.518188476563	-26.90267562866212	1413.0166015625	-1424.8876953125	13.39188861846924	1342.867431640625	-1394.912475585938	249.5298156738282	1450.822631835938	-1445.846801757813	224.6187133789063	1460.83740234375	-1513.232788085938	305.5467834472657	1502.068603515625	-1455.91748046875	-217.8746185302735	1426.040283203125	-1011.137817382813	-67.46211242675783	1435.4736328125	-909.7906494140627	-54.28121566772462	1458.414428710938	-953.036315917969	-2.317235708236695	1460.225952148438	-923.645935058594	42.03052520751954	1467.35498046875	-929.8020629882815	65.69045257568361	1386.90478515625	-949.3667602539065	297.6069641113282	1484.0791015625	-1026.24462890625	301.4416809082032	1507.928955078125	-954.9108886718752	374.3260498046876	1510.649291992188	-1041.551025390625	-334.8860473632813	911.4508056640627	-1176.9482421875	-355.9960021972657	899.1812133789065	-953.7170410156252	-494.9451293945314	1029.340087890625	-1072.983520507813	-516.4609985351564	1010.2421875	-1103.036010742188	-523.7073364257814	1007.768798828125	-1048.17578125	-380.7444458007813	734.7998657226564	-1242.648071289063	-308.9394836425782	691.2128295898439	-1229.495849609375	-271.8833618164063	717.7371215820314	-1216.637817382813	-304.1965026855469	630.2075195312501	-1215.983032226563	-205.7142639160157	492.6316223144532	-1176.268798828125	-211.2537994384766	489.1556396484376	-1060.962036132813	-229.7907409667969	312.1758117675782	-1100.189697265625	-283.0374450683594	277.6533508300782	-1164.119140625	-251.1556854248047	266.8824157714844	-1134.380615234375	-283.2374877929688	199.5408935546876	-1094.4970703125	-367.3263549804688	124.5728912353516	-1135.877197265625	-338.8667297363282	135.7165069580078	-1049.673706054688	-441.2893066406251	110.4856567382813	-1096.894653320313	-239.3883819580079	62.44438552856447	-1049.9228515625	-227.4287719726563	56.99806213378908	-1094.258178710938	-270.4676818847657	41.43487930297852	-1152.321655273438	-460.5144653320314	652.3974609375001	-889.7893066406252	-415.3319396972657	602.5327148437501	-886.4606933593752	-382.9974365234376	607.5130004882814	-891.7645263671877	-433.5954589843751	520.6958007812501	-902.6845703125002	-433.0352172851564	433.0743103027345	-909.2796630859377	-431.5130920410157	400.3367309570314	-1018.490112304688	-556.8716430664064	332.9487915039063	-909.713317871094	-659.7231445312501	380.5250244140626	-907.1204223632815	-644.0001831054689	337.1846618652344	-900.1253051757815	-678.0491943359376	293.8435668945313	-924.4864501953127	-811.2244262695315	300.8589172363282	-914.6328735351565	-775.4652099609377	274.6166687011719	-988.134460449219	-857.669616699219	339.6316223144532	-973.8256835937502	-796.4263916015627	132.580307006836	-969.4497070312502	-800.021667480469	129.1427764892578	-916.7713623046877	-843.2368164062502	163.861068725586	-878.5122070312502	-4216.813476562501	853.0960693359377	-3944.731933593751	nan	nan	nan	nan	nan	nan	
480	2.395	-96.49259948730472	1597.7939453125	-1121.936767578125	-272.4165344238282	1518.73486328125	-1188.067993164063	-246.1510009765626	1526.8203125	-1037.026733398438	-309.5183410644532	1406.410278320313	-1116.113525390625	-441.004608154297	1132.845581054688	-1077.981323242188	-170.3683013916016	1315.51611328125	-1123.034057617188	-235.6181030273438	1409.95263671875	-1247.1611328125	-130.1883392333985	1410.149291992188	-1369.82666015625	-87.7626419067383	1422.234497070313	-1349.344360351563	-70.85672760009767	1414.164672851563	-1407.804565429688	-26.76905059814454	1412.556030273438	-1424.778564453125	13.41531467437744	1342.600830078125	-1394.890502929688	249.9203033447266	1450.602416992188	-1445.64013671875	224.9349212646485	1460.512084960938	-1513.003662109375	305.7493591308594	1501.561401367188	-1455.580932617188	-217.416000366211	1424.983276367188	-1011.123168945313	-66.79988098144533	1434.524291992188	-909.632751464844	-53.80917739868165	1457.240966796875	-953.1734619140627	-2.013929605484009	1459.77392578125	-923.7642211914065	42.46427536010743	1466.48828125	-929.6524658203127	66.13229370117189	1386.262817382813	-949.1948242187502	298.0265808105469	1483.762939453125	-1026.1181640625	301.9043273925782	1507.435546875	-954.7362060546877	374.7231750488282	1510.262084960938	-1041.293334960938	-334.8546447753907	910.462585449219	-1177.034790039063	-355.9851074218751	898.320251464844	-953.515075683594	-494.914764404297	1028.536254882813	-1072.783447265625	-516.2880249023439	1009.502258300781	-1102.829223632813	-523.9571533203126	1007.052612304688	-1048.322265625	-380.8498229980469	734.2802124023439	-1242.683959960938	-308.4836730957032	690.5068359375001	-1229.587768554688	-271.8914489746094	717.3128662109376	-1216.848754882813	-304.1095275878907	629.9478759765626	-1216.048950195313	-205.3847808837891	492.3837280273439	-1176.535034179688	-210.6551055908204	488.8871154785157	-1060.716674804688	-229.5164337158204	311.9189453125001	-1100.489135742188	-282.6742248535157	277.5267333984376	-1164.146362304688	-250.8607940673829	266.6003112792969	-1134.49658203125	-283.0656433105469	199.4341888427735	-1094.55322265625	-367.3279418945313	124.5538864135742	-1135.891235351563	-338.8779907226563	135.7274017333985	-1049.685791015625	-441.2769470214845	110.491081237793	-1096.876831054688	-239.3697509765626	62.27071380615236	-1049.990966796875	-227.4579010009766	56.81967544555665	-1094.28662109375	-270.4961242675782	41.43696212768555	-1152.379150390625	-460.1791381835939	651.5011596679689	-889.8087158203127	-415.321990966797	601.8016357421876	-886.1398925781252	-382.7597961425782	606.7789916992189	-891.745788574219	-433.4192199707032	519.6879272460939	-902.6152343750002	-432.6087341308595	432.2279663085939	-909.2827758789065	-431.3110656738282	399.6657714843751	-1018.553833007813	-556.7564697265626	332.3283386230469	-909.724548339844	-659.5537719726564	380.1839904785157	-907.0127563476565	-643.7816162109376	336.7248535156251	-900.2515258789065	-677.7937622070314	293.4212646484376	-924.8086547851565	-810.9485473632815	300.6021728515626	-914.6712646484377	-775.4488525390627	274.4828491210938	-988.205505371094	-857.499938964844	339.5265808105469	-973.702087402344	-796.4875488281252	132.4924926757813	-969.6433715820315	-800.109313964844	128.958251953125	-916.8538208007815	-843.2205200195315	163.7443237304688	-878.6184082031252	-4217.045410156251	853.062683105469	-3944.665283203126	nan	nan	nan	nan	nan	nan	
481	2.4	-96.11264801025393	1596.849487304688	-1122.121215820313	-272.0190734863282	1517.786743164063	-1187.921142578125	-245.6697692871094	1525.978149414063	-1036.889770507813	-309.0968322753907	1405.38818359375	-1115.937133789063	-440.772674560547	1132.030883789063	-1077.814453125	-170.3072814941407	1314.259643554688	-1122.826416015625	-235.2471923828126	1408.98779296875	-1247.00927734375	-129.704574584961	1409.499633789063	-1369.56689453125	-87.39981842041017	1421.418090820313	-1349.079833984375	-70.31215667724611	1413.341430664063	-1407.287475585938	-26.44042205810548	1412.034301757813	-1424.553466796875	13.80184745788575	1341.796264648438	-1394.73486328125	250.1757202148438	1450.123413085938	-1445.464111328125	225.415512084961	1460.128662109375	-1512.74951171875	305.8994445800782	1500.996704101563	-1455.283203125	-217.0000305175782	1424.02001953125	-1011.129455566406	-66.34154510498048	1433.797729492188	-909.6207275390627	-53.76354217529298	1456.61279296875	-953.137390136719	-1.522614359855652	1458.808349609375	-923.787048339844	42.73363876342774	1465.833251953125	-929.6981201171877	66.64552307128908	1385.51123046875	-949.2020263671877	298.4881591796876	1483.329833984375	-1026.041381835938	301.9507446289063	1506.82177734375	-954.516784667969	375.1927490234376	1509.851928710938	-1041.051025390625	-335.0084533691407	909.7657470703127	-1176.921264648438	-355.9076843261719	897.266052246094	-953.5491943359377	-494.9311523437501	1027.823608398438	-1072.536987304688	-516.3939819335939	1008.838989257813	-1102.63134765625	-523.6739501953126	1006.141845703125	-1047.934448242188	-380.8259582519532	733.3063354492189	-1242.807739257813	-308.4274291992188	690.0516357421876	-1229.760864257813	-271.9655151367188	716.9647216796876	-1217.086303710938	-303.9706420898438	629.4960937500001	-1216.350830078125	-205.0253601074219	492.1489257812501	-1176.726928710938	-210.2097473144532	488.5601806640626	-1060.940185546875	-229.2491607666016	311.7686157226563	-1100.625	-282.5086975097657	277.3744812011719	-1164.181274414063	-250.8157958984376	266.3211975097657	-1134.609130859375	-282.9564819335938	199.3635864257813	-1094.634521484375	-367.2747192382813	124.5096664428711	-1135.929077148438	-338.8233642578126	135.7261962890625	-1049.691284179688	-441.0115966796876	109.9805297851563	-1097.163330078125	-239.3511047363282	62.22583770751955	-1050.01318359375	-227.4840240478516	56.8131561279297	-1094.304321289063	-270.4819030761719	41.40644836425782	-1152.4033203125	-460.0076293945314	650.4650268554689	-889.6958007812502	-415.175262451172	601.0239257812501	-886.038513183594	-382.5549926757813	605.8671264648439	-891.7265625000002	-433.1001892089845	518.9610595703126	-902.5159301757815	-432.3380737304689	431.4892883300782	-909.2897949218752	-431.9356384277345	399.6156616210939	-1018.829650878906	-556.6843261718751	331.9104309082032	-909.7044677734377	-659.1738891601564	379.7359008789063	-907.0784912109377	-643.4980468750001	336.2720031738282	-900.2613525390627	-677.7708740234376	293.0184020996094	-924.792663574219	-810.7927246093752	300.4272766113282	-914.615417480469	-775.3496704101565	274.3992919921876	-988.2417602539065	-857.3765869140627	339.4955139160157	-973.6173095703127	-796.5681762695315	132.4171600341797	-969.8261718750002	-800.1735839843752	128.850082397461	-917.0489501953127	-843.2723388671877	163.4453887939453	-878.7316894531252	-4216.641113281251	853.077331542969	-3944.778076171876	nan	nan	nan	nan	nan	nan	
